M48
;DRILL file {KiCad (5.0.0-3-g5ebb6b6)} date 2018 November 12, Monday 21:11:23
;FORMAT={-:-/ absolute / inch / decimal}
FMAT,2
INCH,TZ
T1C0.0157
T2C0.0320
T3C0.0394
T4C0.0512
T5C0.0551
T6C0.0591
T7C0.0866
T8C0.1890
%
G90
G05
M72
T1
X2.6253Y-2.1505
X2.6299Y-3.6457
X2.6308Y-2.8994
X2.6311Y-4.3925
X2.6576Y-2.1598
X2.6693Y-4.4254
X2.6772Y-2.9289
X2.6772Y-3.6774
X2.8442Y-2.9585
X2.8543Y-1.9783
X2.874Y-2.7244
X2.874Y-3.0118
X2.874Y-3.6478
X2.874Y-3.7598
X2.874Y-4.5079
X2.9114Y-2.0571
X2.9134Y-3.4567
X2.9196Y-2.6946
X2.9196Y-2.8172
X2.9213Y-4.2913
X2.9281Y-4.1969
X2.9287Y-3.5335
X2.9305Y-3.6478
X2.9449Y-2.9596
X2.9449Y-4.4724
X2.9677Y-4.1685
X2.9909Y-3.4712
X2.9921Y-4.2717
X3.0331Y-2.2188
X3.063Y-4.4724
X3.1339Y-2.0787
X3.1339Y-2.2205
X3.1339Y-2.8819
X3.1339Y-3.0157
X3.1339Y-3.6142
X3.1339Y-3.9291
X3.1969Y-4.3661
X3.253Y-4.4724
X3.2598Y-3.3858
X3.2618Y-2.9685
X3.2677Y-3.7087
X3.2992Y-4.1339
X3.3071Y-2.8031
X3.315Y-2.6496
X3.3386Y-3.3858
X3.3386Y-3.5531
X3.3465Y-2.6654
X3.3465Y-4.1339
X3.3504Y-4.2894
X3.3661Y-2.1523
X3.378Y-2.8994
X3.3799Y-3.6478
X3.3799Y-4.3957
X3.3858Y-2.9685
X3.4124Y-2.1496
X3.4252Y-2.9289
X3.4252Y-3.6774
X3.4264Y-4.4256
X3.5079Y-3.1772
X3.6378Y-1.9587
X3.6614Y-2.0496
X3.6654Y-3.5354
X3.6693Y-2.6496
X3.6693Y-2.7874
X3.676Y-4.298
X3.6772Y-4.1339
X3.6811Y-2.5758
X3.6929Y-3.3809
X3.6964Y-2.5261
X3.7008Y-2.7362
X3.748Y-2.6152
X3.748Y-4.1024
X3.748Y-4.2677
X3.7559Y-4.1654
X3.7571Y-2.9341
X3.7695Y-2.1876
X3.7697Y-4.8602
X3.7717Y-3.1575
X3.8031Y-3.4488
X3.8031Y-3.5039
X3.8268Y-3.2598
X3.8307Y-2.7874
X3.8346Y-3.374
X3.8573Y-4.1732
X3.874Y-2.6929
X3.874Y-2.811
X3.8898Y-3.7795
X3.8976Y-3.2874
X3.8976Y-4.2835
X3.9055Y-2.0591
X3.9055Y-2.1969
X3.9055Y-3.5197
X3.9065Y-3.4409
X3.9134Y-3.5669
X3.9213Y-2.7795
X3.9213Y-3.9764
X3.937Y-4.1732
X3.9409Y-2.0591
X3.9409Y-2.1929
X4.0079Y-2.7795
X4.0079Y-4.2835
X4.0911Y-3.5196
X4.1182Y-3.4611
X4.1201Y-1.9685
X4.1201Y-4.2089
X4.128Y-2.7124
X4.1522Y-1.9659
X4.1732Y-2.7419
X4.1732Y-4.2384
X4.1809Y-3.4918
X4.2126Y-4.7254
X4.2913Y-4.7254
X4.3543Y-1.8031
X4.4094Y-1.8504
X4.4252Y-3.3622
X4.4252Y-4.0945
X4.4398Y-2.5972
X4.4646Y-2.5354
X4.4646Y-3.2756
X4.4793Y-2.3465
X4.4961Y-4.9823
X4.5039Y-2.5276
X4.5197Y-2.
X4.5276Y-1.8268
X4.5276Y-4.0394
X4.5315Y-5.0118
X4.6693Y-2.7402
X4.7348Y-4.1955
X4.7638Y-2.315
X4.7638Y-2.6772
X4.7677Y-3.0758
X4.7717Y-3.4252
X4.7795Y-1.7953
X4.7953Y-4.874
X4.8031Y-4.811
X4.8189Y-3.1024
X4.8346Y-2.315
X4.8346Y-3.2726
X4.8425Y-4.623
X4.8563Y-1.7953
X4.8664Y-3.3699
X4.876Y-2.624
X4.8791Y-4.1287
X4.8976Y-1.8661
X4.9094Y-4.1457
X4.9121Y-3.3883
X4.9134Y-2.6535
X5.Y-4.6683
X5.0157Y-4.6063
X5.0472Y-5.0472
X5.0866Y-4.6929
X5.1417Y-5.0472
X5.1575Y-1.7795
X5.1575Y-3.8976
X5.172Y-2.5106
X5.1732Y-3.2677
X5.1732Y-4.0157
X5.1732Y-4.8671
X5.189Y-1.7323
X5.2047Y-3.1102
X5.2283Y-2.4803
X5.2421Y-4.9791
X5.252Y-2.4331
X5.2598Y-3.2126
X5.2795Y-5.0118
X5.3071Y-2.378
X5.315Y-3.2126
X5.3465Y-4.6929
X5.3691Y-3.4961
X5.3701Y-4.252
X5.3701Y-2.4803
X5.3937Y-1.9449
X5.3937Y-2.0315
X5.3937Y-3.2441
X5.4016Y-2.5748
X5.4016Y-2.7165
X5.4085Y-3.1102
X5.4094Y-2.3465
X5.4173Y-2.4646
X5.4331Y-1.811
X5.4331Y-1.9764
X5.4882Y-3.4961
X5.497Y-2.4646
X5.5039Y-2.7559
X5.5118Y-4.252
X5.5197Y-2.4094
X5.5276Y-4.8898
X5.5433Y-4.8268
X5.6024Y-3.3465
X5.6122Y-1.956
X5.6161Y-2.7153
X5.6164Y-4.2124
X5.6457Y-1.9606
X5.6772Y-2.747
X5.6772Y-3.501
X5.685Y-4.24
X5.874Y-4.9134
X5.874Y-5.0709
X5.9043Y-1.8807
X5.9075Y-3.3622
X5.9075Y-4.1024
X5.9154Y-2.6063
X5.9213Y-2.5197
X5.9291Y-3.2913
X5.937Y-1.8504
X5.937Y-4.0748
X5.937Y-4.7323
X5.959Y-2.5148
X5.9606Y-2.44
X5.9826Y-4.1198
X6.Y-4.0551
X6.0394Y-3.315
X6.1093Y-3.185
X6.1161Y-4.9606
X6.121Y-4.9055
X6.126Y-2.0945
X6.126Y-2.3228
X6.1339Y-2.7795
X6.1339Y-4.2677
X6.1339Y-4.7638
X6.1654Y-3.185
X6.1929Y-2.6378
X6.1969Y-4.126
X6.2283Y-4.3947
X6.2283Y-3.4409
X6.2362Y-4.3386
X6.2429Y-3.9461
X6.2441Y-3.7559
X6.2504Y-3.0206
X6.252Y-2.8425
X6.2586Y-2.5051
X6.2667Y-2.5748
X6.2677Y-3.2933
X6.2756Y-4.7795
X6.2756Y-4.9055
X6.2862Y-3.9894
X6.2913Y-2.7244
X6.2913Y-3.4094
X6.315Y-2.6417
X6.3228Y-4.7992
X6.3268Y-2.5236
X6.3307Y-3.3179
X6.3307Y-3.378
X6.3307Y-3.44
X6.3386Y-1.9734
X6.3465Y-2.5906
X6.3644Y-4.3069
X6.3713Y-2.8098
X6.374Y-2.8819
X6.3937Y-2.0551
X6.417Y-3.5832
X6.4173Y-4.3425
X6.4252Y-2.8425
X6.4319Y-5.0382
X6.4488Y-4.9272
X6.4843Y-3.2717
X6.4882Y-5.252
X6.4961Y-4.7667
X6.5197Y-5.0394
X6.5276Y-4.1102
X6.5472Y-5.311
X6.5961Y-4.7058
X6.5984Y-2.4724
X6.6496Y-1.9734
X6.6528Y-2.7306
X6.6585Y-2.5236
X6.6614Y-3.315
X6.6693Y-3.4567
X6.6693Y-4.1969
X6.6772Y-3.3858
X6.6831Y-2.4731
X6.685Y-1.9449
X6.685Y-2.6929
X6.6867Y-2.593
X6.7008Y-4.8346
X6.7165Y-4.1427
X6.7244Y-2.0866
X6.739Y-3.2901
X6.7418Y-3.1591
X6.7535Y-4.1969
X6.7618Y-2.5276
X6.7646Y-2.3748
X6.7648Y-2.7648
X6.7657Y-2.0551
X6.7657Y-2.689
X6.7717Y-4.8563
X6.7717Y-4.937
X6.7949Y-2.5436
X6.7976Y-2.6158
X6.8031Y-4.1969
X6.8209Y-2.5258
X6.8268Y-5.4173
X6.8307Y-2.7756
X6.8317Y-2.3307
X6.8346Y-2.1024
X6.8386Y-3.937
X6.8386Y-4.6142
X6.8504Y-3.626
X6.8504Y-3.8268
X6.8514Y-4.8417
X6.8514Y-4.9094
X6.8632Y-3.9961
X6.8661Y-2.1417
X6.8754Y-2.5577
X6.8888Y-3.1546
X6.8898Y-2.7165
X6.8898Y-3.8858
X6.8972Y-5.0399
X6.9055Y-3.4173
X6.9131Y-2.6302
X6.937Y-3.315
X6.937Y-5.1063
X6.9396Y-5.4055
X6.9685Y-3.4173
X6.9764Y-3.939
X7.063Y-3.2756
X7.1575Y-3.1772
X7.1654Y-3.4567
X7.1811Y-2.2362
X7.2483Y-3.1854
X7.252Y-2.4882
X7.2598Y-2.0866
X7.2913Y-3.2283
X7.2982Y-2.5354
X7.3071Y-2.1811
X7.315Y-2.1339
X7.3162Y-2.2375
X7.3162Y-2.3851
X7.3228Y-3.19
X7.3307Y-2.4875
X7.3543Y-2.6375
X7.378Y-2.8583
X7.378Y-2.9685
X7.3858Y-2.7559
X7.3858Y-3.1014
X7.3866Y-3.0522
X7.3937Y-2.6919
X7.3971Y-3.1895
X7.4016Y-2.5906
X7.4331Y-2.7323
X7.4488Y-2.6378
X7.4488Y-3.0394
X7.4567Y-2.937
X7.4646Y-2.8346
X7.4803Y-3.1014
X7.4882Y-3.185
T2
X5.315Y-4.102
X5.315Y-4.402
X6.1811Y-2.0449
X6.1811Y-2.3449
X2.4409Y-3.6344
X2.4409Y-3.9344
X3.8189Y-4.3825
X3.8189Y-4.6825
X5.315Y-1.8579
X5.315Y-2.1579
X5.689Y-4.9583
X5.689Y-5.2583
X6.063Y-2.6994
X6.063Y-2.9994
X4.5669Y-1.9514
X4.5669Y-2.2514
X6.963Y-2.1375
X6.963Y-2.2375
X6.963Y-2.3375
X6.963Y-2.4375
X6.963Y-2.5375
X6.963Y-2.6375
X6.963Y-2.7375
X6.963Y-2.8375
X6.963Y-2.9375
X6.963Y-3.0375
X6.963Y-3.1375
X6.963Y-3.2375
X7.0152Y-2.0875
X7.0152Y-2.1875
X7.0152Y-2.2875
X7.0152Y-2.3875
X7.0152Y-2.4875
X7.0152Y-2.5875
X7.0152Y-2.6875
X7.0152Y-2.7875
X7.0152Y-2.8875
X7.0152Y-2.9875
X7.0152Y-3.0875
X7.0152Y-3.1875
X7.563Y-2.1375
X7.563Y-2.2375
X7.563Y-2.3375
X7.563Y-2.4375
X7.563Y-2.5375
X7.563Y-2.6375
X7.563Y-2.7375
X7.563Y-2.8375
X7.563Y-2.9375
X7.563Y-3.0375
X7.563Y-3.1375
X7.563Y-3.2375
X7.6144Y-2.0875
X7.6144Y-2.1875
X7.6144Y-2.2875
X7.6144Y-2.3875
X7.6144Y-2.4875
X7.6144Y-2.5875
X7.6144Y-2.6875
X7.6144Y-2.7875
X7.6144Y-2.8875
X7.6144Y-2.9875
X7.6144Y-3.0875
X7.6144Y-3.1875
X6.1811Y-3.5409
X6.1811Y-3.8409
X7.2622Y-3.5138
X7.4622Y-3.5138
X4.311Y-4.9681
X4.311Y-5.2681
X4.5669Y-2.6994
X4.5669Y-2.9994
X2.4409Y-2.1384
X2.4409Y-2.4384
X5.315Y-3.3539
X5.315Y-3.6539
X6.063Y-4.1955
X6.063Y-4.4955
X2.4409Y-2.8864
X2.4409Y-3.1864
X7.1378Y-3.4075
X7.2378Y-3.4075
X7.3378Y-3.4075
X7.4378Y-3.4075
X3.8189Y-3.6344
X3.8189Y-3.9344
X4.5669Y-4.1955
X4.5669Y-4.4955
X7.126Y-3.6043
X6.063Y-2.0449
X6.063Y-2.3449
X5.8071Y-4.9583
X5.8071Y-5.2583
X6.1811Y-2.7929
X6.1811Y-3.0929
X2.4409Y-4.3825
X2.4409Y-4.6825
X4.9409Y-4.9681
X4.9409Y-5.2681
X5.315Y-2.6059
X5.315Y-2.9059
X3.8189Y-2.1384
X3.8189Y-2.4384
X6.063Y-3.4474
X6.063Y-3.7474
X6.1811Y-4.289
X6.1811Y-4.589
X7.126Y-3.5138
X3.8189Y-2.8864
X3.8189Y-3.1864
X4.5669Y-3.4474
X4.5669Y-3.7474
X7.2622Y-3.6043
X7.4622Y-3.6043
T4
X7.5945Y-3.3465
X7.5945Y-3.6024
T5
X2.5551Y-4.686
X2.7559Y-4.7648
X2.9567Y-4.686
X4.0512Y-2.2549
X4.252Y-2.3337
X4.4528Y-2.2549
X5.9671Y-5.3227
X6.1407Y-5.4507
X6.355Y-5.4267
X4.7992Y-3.6575
X5.Y-3.7362
X5.2008Y-3.6575
X3.3031Y-2.4419
X3.5039Y-2.5207
X3.7047Y-2.4419
X6.2953Y-4.5925
X6.4961Y-4.6713
X6.6969Y-4.5925
X2.5551Y-3.938
X2.7559Y-4.0167
X2.9567Y-3.938
X4.7992Y-2.9094
X5.Y-2.9882
X5.2008Y-2.9094
X3.3031Y-4.686
X3.5039Y-4.7648
X3.7047Y-4.686
X2.5551Y-3.19
X2.7559Y-3.2687
X2.9567Y-3.19
X4.7992Y-2.1614
X5.Y-2.2402
X5.2008Y-2.1614
X5.5472Y-3.751
X5.748Y-3.8297
X5.9488Y-3.751
X4.4252Y-5.2717
X4.626Y-5.3504
X4.8268Y-5.2717
X3.3031Y-3.938
X3.5039Y-4.0167
X3.7047Y-3.938
X7.1094Y-5.6247
X7.2779Y-5.4902
X7.3101Y-5.2769
X4.7992Y-4.4055
X5.Y-4.4843
X5.2008Y-4.4055
X5.5472Y-3.003
X5.748Y-3.0817
X5.9488Y-3.003
X2.5551Y-2.4419
X2.7559Y-2.5207
X2.9567Y-2.4419
X3.3031Y-3.19
X3.5039Y-3.2687
X3.7047Y-3.19
X5.5472Y-2.2549
X5.748Y-2.3337
X5.9488Y-2.2549
X6.2953Y-3.8445
X6.4961Y-3.9232
X6.6969Y-3.8445
X5.1732Y-5.2717
X5.374Y-5.3504
X5.5748Y-5.2717
X4.0512Y-3.751
X4.252Y-3.8297
X4.4528Y-3.751
X4.0512Y-4.499
X4.252Y-4.5778
X4.4528Y-4.499
X5.5472Y-4.499
X5.748Y-4.5778
X5.9488Y-4.499
X6.2953Y-3.1063
X6.4961Y-3.185
X6.6969Y-3.1063
X4.0512Y-3.003
X4.252Y-3.0817
X4.4528Y-3.003
X6.2953Y-2.3484
X6.4961Y-2.4272
X6.6969Y-2.3484
T6
X3.3539Y-3.8844
X3.4039Y-3.9844
X3.6039Y-3.9844
X3.6539Y-3.8844
X7.0884Y-5.5539
X7.2Y-5.5606
X7.2384Y-5.2941
X7.3Y-5.3874
X4.85Y-4.352
X4.9Y-4.452
X5.1Y-4.452
X5.15Y-4.352
X5.598Y-2.9494
X5.648Y-3.0494
X5.848Y-3.0494
X5.898Y-2.9494
X2.6059Y-2.3884
X2.6559Y-2.4884
X2.8559Y-2.4884
X2.9059Y-2.3884
X3.3539Y-3.1364
X3.4039Y-3.2364
X3.6039Y-3.2364
X3.6539Y-3.1364
X5.598Y-2.2014
X5.648Y-2.3014
X5.848Y-2.3014
X5.898Y-2.2014
X6.3461Y-3.7909
X6.3961Y-3.8909
X6.5961Y-3.8909
X6.6461Y-3.7909
X5.224Y-5.2181
X5.274Y-5.3181
X5.474Y-5.3181
X5.524Y-5.2181
X4.102Y-3.6974
X4.152Y-3.7974
X4.352Y-3.7974
X4.402Y-3.6974
X4.102Y-4.4455
X4.152Y-4.5455
X4.352Y-4.5455
X4.402Y-4.4455
X5.598Y-4.4455
X5.648Y-4.5455
X5.848Y-4.5455
X5.898Y-4.4455
X6.3461Y-3.0528
X6.3961Y-3.1528
X6.5961Y-3.1528
X6.6461Y-3.0528
X4.102Y-2.9494
X4.152Y-3.0494
X4.352Y-3.0494
X4.402Y-2.9494
X6.3461Y-2.2949
X6.3961Y-2.3949
X6.5961Y-2.3949
X6.6461Y-2.2949
X2.6059Y-4.6325
X2.6559Y-4.7325
X2.8559Y-4.7325
X2.9059Y-4.6325
X4.102Y-2.2014
X4.152Y-2.3014
X4.352Y-2.3014
X4.402Y-2.2014
X6.03Y-5.2841
X6.0524Y-5.3937
X6.2456Y-5.4454
X6.3198Y-5.3618
X4.85Y-3.6039
X4.9Y-3.7039
X5.1Y-3.7039
X5.15Y-3.6039
X3.3539Y-2.3884
X3.4039Y-2.4884
X3.6039Y-2.4884
X3.6539Y-2.3884
X6.3461Y-4.539
X6.3961Y-4.639
X6.5961Y-4.639
X6.6461Y-4.539
X2.6059Y-3.8844
X2.6559Y-3.9844
X2.8559Y-3.9844
X2.9059Y-3.8844
X4.85Y-2.8559
X4.9Y-2.9559
X5.1Y-2.9559
X5.15Y-2.8559
X3.3539Y-4.6325
X3.4039Y-4.7325
X3.6039Y-4.7325
X3.6539Y-4.6325
X2.6059Y-3.1364
X2.6559Y-3.2364
X2.8559Y-3.2364
X2.9059Y-3.1364
X4.85Y-2.1079
X4.9Y-2.2079
X5.1Y-2.2079
X5.15Y-2.1079
X5.598Y-3.6974
X5.648Y-3.7974
X5.848Y-3.7974
X5.898Y-3.6974
X4.476Y-5.2181
X4.526Y-5.3181
X4.726Y-5.3181
X4.776Y-5.2181
T7
X6.998Y-4.1063
X7.5689Y-4.4409
T8
X4.0846Y-4.8327
X6.122Y-2.5197
X3.1299Y-2.6673
X6.6634Y-5.1378
X4.626Y-2.4409
X6.122Y-4.0059
X3.1299Y-4.1535
T3
X7.2106Y-3.7736G85X7.1909Y-3.7736
G05
X7.2106Y-3.8701G85X7.1909Y-3.8701
G05
X7.2697Y-3.7047G85X7.25Y-3.7047
G05
X7.2697Y-3.939G85X7.25Y-3.939
G05
X7.4272Y-3.7047G85X7.4075Y-3.7047
G05
X7.4272Y-3.939G85X7.4075Y-3.939
G05
X7.5453Y-3.7047G85X7.5256Y-3.7047
G05
X7.5453Y-3.939G85X7.5256Y-3.939
G05
T0
M30
