G04 #@! TF.GenerationSoftware,KiCad,Pcbnew,(5.0.0-3-g5ebb6b6)*
G04 #@! TF.CreationDate,2018-11-12T21:10:46+01:00*
G04 #@! TF.ProjectId,corne-classic,636F726E652D636C61737369632E6B69,1.1*
G04 #@! TF.SameCoordinates,Original*
G04 #@! TF.FileFunction,Profile,NP*
%FSLAX46Y46*%
G04 Gerber Fmt 4.6, Leading zero omitted, Abs format (unit mm)*
G04 Created by KiCad (PCBNEW (5.0.0-3-g5ebb6b6)) date 2018 November 12, Monday 21:10:46*
%MOMM*%
%LPD*%
G01*
G04 APERTURE LIST*
%ADD10C,0.150000*%
G04 APERTURE END LIST*
D10*
X176070000Y-136390000D02*
X172180000Y-134140000D01*
X177830000Y-133360000D02*
X176070000Y-136390000D01*
X173930000Y-131110000D02*
X177830000Y-133360000D01*
X172180000Y-134140000D02*
X173930000Y-131110000D01*
X156720000Y-129220000D02*
X157890000Y-124870000D01*
X160110000Y-130130000D02*
X156720000Y-129220000D01*
X161280000Y-125780000D02*
X160110000Y-130130000D01*
X157890000Y-124870000D02*
X161280000Y-125780000D01*
X134750000Y-126750000D02*
X138250000Y-126750000D01*
X138250000Y-122240000D02*
X134750000Y-122240000D01*
X138250000Y-126750000D02*
X138250000Y-122240000D01*
X134750000Y-122240000D02*
X134750000Y-126750000D01*
X115750000Y-126750000D02*
X119250000Y-126750000D01*
X115750000Y-122240000D02*
X115750000Y-126750000D01*
X119250000Y-122240000D02*
X115750000Y-122240000D01*
X119250000Y-126750000D02*
X119250000Y-122240000D01*
X163250000Y-109500000D02*
X166750000Y-109500000D01*
X163250000Y-104990000D02*
X163250000Y-109500000D01*
X166750000Y-109500000D02*
X166750000Y-104990000D01*
X166750000Y-104990000D02*
X163250000Y-104990000D01*
X144250000Y-107120000D02*
X147750000Y-107120000D01*
X147750000Y-107120000D02*
X147750000Y-102610000D01*
X147750000Y-102610000D02*
X144250000Y-102610000D01*
X144250000Y-102610000D02*
X144250000Y-107120000D01*
X128750000Y-100240000D02*
X125250000Y-100240000D01*
X128750000Y-104750000D02*
X128750000Y-100240000D01*
X125250000Y-104750000D02*
X128750000Y-104750000D01*
X125250000Y-100240000D02*
X125250000Y-104750000D01*
X109750000Y-107130000D02*
X109750000Y-102620000D01*
X106250000Y-107130000D02*
X109750000Y-107130000D01*
X106250000Y-102620000D02*
X106250000Y-107130000D01*
X109750000Y-102620000D02*
X106250000Y-102620000D01*
X90750000Y-107370000D02*
X87250000Y-107370000D01*
X90750000Y-111880000D02*
X90750000Y-107370000D01*
X87250000Y-107370000D02*
X87250000Y-111880000D01*
X87250000Y-111880000D02*
X90750000Y-111880000D01*
X71750000Y-107370000D02*
X68250000Y-107370000D01*
X71750000Y-111880000D02*
X71750000Y-107370000D01*
X68250000Y-107370000D02*
X68250000Y-111880000D01*
X68250000Y-111880000D02*
X71750000Y-111880000D01*
X166750000Y-85990000D02*
X163250000Y-85990000D01*
X166750000Y-90500000D02*
X166750000Y-85990000D01*
X163250000Y-90500000D02*
X166750000Y-90500000D01*
X163250000Y-85990000D02*
X163250000Y-90500000D01*
X144250000Y-88130000D02*
X147750000Y-88130000D01*
X144250000Y-83620000D02*
X144250000Y-88130000D01*
X147750000Y-88130000D02*
X147750000Y-83620000D01*
X147750000Y-83620000D02*
X144250000Y-83620000D01*
X128750000Y-81240000D02*
X125250000Y-81240000D01*
X128750000Y-85750000D02*
X128750000Y-81240000D01*
X125250000Y-81240000D02*
X125250000Y-85750000D01*
X125250000Y-85750000D02*
X128750000Y-85750000D01*
X106250000Y-83610000D02*
X106250000Y-88120000D01*
X109750000Y-88120000D02*
X109750000Y-83610000D01*
X106250000Y-88120000D02*
X109750000Y-88120000D01*
X109750000Y-83610000D02*
X106250000Y-83610000D01*
X90750000Y-92880000D02*
X90750000Y-88370000D01*
X87250000Y-92880000D02*
X90750000Y-92880000D01*
X90750000Y-88370000D02*
X87250000Y-88370000D01*
X87250000Y-88370000D02*
X87250000Y-92880000D01*
X68250000Y-88370000D02*
X68250000Y-92880000D01*
X71750000Y-92880000D02*
X71750000Y-88370000D01*
X71750000Y-88370000D02*
X68250000Y-88370000D01*
X68250000Y-92880000D02*
X71750000Y-92880000D01*
X163250000Y-66990000D02*
X163250000Y-71500000D01*
X166750000Y-71500000D02*
X166750000Y-66990000D01*
X166750000Y-66990000D02*
X163250000Y-66990000D01*
X163250000Y-71500000D02*
X166750000Y-71500000D01*
X144250000Y-64610000D02*
X144250000Y-69120000D01*
X147750000Y-69120000D02*
X147750000Y-64610000D01*
X147750000Y-64610000D02*
X144250000Y-64610000D01*
X144250000Y-69120000D02*
X147750000Y-69120000D01*
X125250000Y-62240000D02*
X125250000Y-66750000D01*
X128750000Y-66750000D02*
X128750000Y-62240000D01*
X128750000Y-62240000D02*
X125250000Y-62240000D01*
X125250000Y-66750000D02*
X128750000Y-66750000D01*
X106250000Y-64610000D02*
X106250000Y-69120000D01*
X109750000Y-69120000D02*
X109750000Y-64610000D01*
X109750000Y-64610000D02*
X106250000Y-64610000D01*
X106250000Y-69120000D02*
X109750000Y-69120000D01*
X87250000Y-69360000D02*
X87250000Y-73870000D01*
X90750000Y-73870000D02*
X90750000Y-69360000D01*
X90750000Y-69360000D02*
X87250000Y-69360000D01*
X87250000Y-73870000D02*
X90750000Y-73870000D01*
X68250000Y-69360000D02*
X68250000Y-73870000D01*
X71750000Y-73870000D02*
X71750000Y-69360000D01*
X71750000Y-69360000D02*
X68250000Y-69360000D01*
X68250000Y-73870000D02*
X71750000Y-73870000D01*
X163250000Y-47990000D02*
X163250000Y-52500000D01*
X166750000Y-52500000D02*
X166750000Y-47990000D01*
X166750000Y-47990000D02*
X163250000Y-47990000D01*
X163250000Y-52500000D02*
X166750000Y-52500000D01*
X144250000Y-45610000D02*
X144250000Y-50120000D01*
X147750000Y-50120000D02*
X147750000Y-45610000D01*
X147750000Y-45610000D02*
X144250000Y-45610000D01*
X144250000Y-50120000D02*
X147750000Y-50120000D01*
X125250000Y-43240000D02*
X125250000Y-47750000D01*
X128750000Y-47750000D02*
X128750000Y-43240000D01*
X128750000Y-43240000D02*
X125250000Y-43240000D01*
X125250000Y-47750000D02*
X128750000Y-47750000D01*
X106250000Y-45620000D02*
X106250000Y-50130000D01*
X109750000Y-50130000D02*
X109750000Y-45620000D01*
X109750000Y-45620000D02*
X106250000Y-45620000D01*
X106250000Y-50130000D02*
X109750000Y-50130000D01*
X87250000Y-50380000D02*
X87250000Y-54890000D01*
X90750000Y-54890000D02*
X90750000Y-50380000D01*
X90750000Y-50370000D02*
X87250000Y-50370000D01*
X87250000Y-54890000D02*
X90750000Y-54890000D01*
X71750000Y-50370000D02*
X68250000Y-50370000D01*
X71750000Y-54880000D02*
X71750000Y-50370000D01*
X68250000Y-54880000D02*
X71750000Y-54880000D01*
X68250000Y-50370000D02*
X68250000Y-54880000D01*
X174500000Y-49000000D02*
G75*
G02X174000000Y-48500000I0J500000D01*
G01*
X173500000Y-46750000D02*
G75*
G02X174000000Y-47250000I0J-500000D01*
G01*
X155500000Y-46750000D02*
G75*
G02X155000000Y-46250000I0J500000D01*
G01*
X154500000Y-44250000D02*
G75*
G02X155000000Y-44750000I0J-500000D01*
G01*
X136500000Y-44250000D02*
G75*
G02X136000000Y-43750000I0J500000D01*
G01*
X135500000Y-42000000D02*
G75*
G02X136000000Y-42500000I0J-500000D01*
G01*
X118000000Y-42500000D02*
G75*
G02X118500000Y-42000000I500000J0D01*
G01*
X118000000Y-43750000D02*
G75*
G02X117500000Y-44250000I-500000J0D01*
G01*
X99000000Y-44750000D02*
G75*
G02X99500000Y-44250000I500000J0D01*
G01*
X99000000Y-48500000D02*
G75*
G02X98500000Y-49000000I-500000J0D01*
G01*
X61000000Y-49500000D02*
G75*
G02X61500000Y-49000000I500000J0D01*
G01*
X61500000Y-124250000D02*
G75*
G02X61000000Y-123750000I0J500000D01*
G01*
X99509449Y-124247347D02*
G75*
G02X99850000Y-124400000I10551J-432653D01*
G01*
X180826381Y-152757603D02*
G75*
G02X179590000Y-153040000I-766381J507603D01*
G01*
X108748946Y-138999912D02*
G75*
G02X108400000Y-138850000I51054J599912D01*
G01*
X194241401Y-48999073D02*
G75*
G02X194750000Y-49500000I8599J-499927D01*
G01*
X61500000Y-49000000D02*
X98500000Y-49000000D01*
X99000000Y-44750000D02*
X99000000Y-48500000D01*
X117500000Y-44250000D02*
X99500000Y-44250000D01*
X118000000Y-42500000D02*
X118000000Y-43750000D01*
X135500000Y-42000000D02*
X118500000Y-42000000D01*
X136000000Y-43750000D02*
X136000000Y-42500000D01*
X154500000Y-44250000D02*
X136500000Y-44250000D01*
X155000000Y-46250000D02*
X155000000Y-44750000D01*
X173500000Y-46750000D02*
X155500000Y-46750000D01*
X174000000Y-47250000D02*
X174000000Y-48500000D01*
X194250000Y-49000000D02*
X174500000Y-49000000D01*
X194750000Y-49500000D02*
X194750000Y-128500000D01*
X180840000Y-152740000D02*
X194750000Y-128500000D01*
X164750000Y-144500000D02*
X179570000Y-153030000D01*
X108750000Y-139000000D02*
X164750000Y-144500000D01*
X99850000Y-124400000D02*
X108400000Y-138850000D01*
X99500000Y-124250000D02*
X61500000Y-124250000D01*
X61000000Y-49500000D02*
X61000000Y-123750000D01*
M02*
