M48
;DRILL file {KiCad (5.0.0-3-g5ebb6b6)} date 2018 November 12, Monday 21:11:23
;FORMAT={-:-/ absolute / inch / decimal}
FMAT,2
INCH,TZ
T1C0.0394
T2C0.0472
T3C0.0669
T4C0.0748
T5C0.1575
%
G90
G05
M72
T1
X3.2984Y-2.123
X3.7094Y-2.123
X6.2906Y-4.2736
X6.7016Y-4.2736
X2.5504Y-3.6191
X2.9614Y-3.6191
X4.7945Y-2.5906
X5.2055Y-2.5906
X3.2984Y-4.3671
X3.7094Y-4.3671
X2.5504Y-2.8711
X2.9614Y-2.8711
X4.7945Y-1.8425
X5.2055Y-1.8425
X5.5425Y-3.4321
X5.9535Y-3.4321
X4.4205Y-4.9528
X4.8315Y-4.9528
X3.2984Y-3.6191
X3.7094Y-3.6191
X6.8308Y-5.4693
X7.0363Y-5.1134
X4.7945Y-4.0866
X5.2055Y-4.0866
X5.5425Y-2.6841
X5.9535Y-2.6841
X2.5504Y-2.123
X2.9614Y-2.123
X3.2984Y-2.8711
X3.7094Y-2.8711
X5.5425Y-1.936
X5.9535Y-1.936
X6.2906Y-3.5256
X6.7016Y-3.5256
X5.1685Y-4.9528
X5.5795Y-4.9528
X4.0465Y-3.4321
X4.4575Y-3.4321
X4.0465Y-4.1801
X4.4575Y-4.1801
X5.5425Y-4.1801
X5.9535Y-4.1801
X6.2906Y-2.7874
X6.7016Y-2.7874
X4.0465Y-2.6841
X4.4575Y-2.6841
X6.2906Y-2.0295
X6.7016Y-2.0295
X2.5504Y-4.3671
X2.9614Y-4.3671
X4.0465Y-1.936
X4.4575Y-1.936
X6.0451Y-5.0135
X6.4421Y-5.1198
X4.7945Y-3.3386
X5.2055Y-3.3386
T2
X7.3307Y-3.7874
X7.3307Y-3.8563
X7.6063Y-3.7874
X7.6063Y-3.8563
T3
X4.052Y-3.5974
X4.452Y-3.5974
X4.052Y-4.3455
X4.452Y-4.3455
X5.548Y-4.3455
X5.948Y-4.3455
X6.2961Y-2.9528
X6.6961Y-2.9528
X4.052Y-2.8494
X4.452Y-2.8494
X6.2961Y-2.1949
X6.6961Y-2.1949
X2.5559Y-4.5325
X2.9559Y-4.5325
X4.052Y-2.1014
X4.452Y-2.1014
X6.0076Y-5.1746
X6.394Y-5.2781
X4.8Y-3.5039
X5.2Y-3.5039
X3.3039Y-2.2884
X3.7039Y-2.2884
X6.2961Y-4.439
X6.6961Y-4.439
X2.5559Y-3.7844
X2.9559Y-3.7844
X4.8Y-2.7559
X5.2Y-2.7559
X3.3039Y-4.5325
X3.7039Y-4.5325
X2.5559Y-3.0364
X2.9559Y-3.0364
X4.8Y-2.0079
X5.2Y-2.0079
X5.548Y-3.5974
X5.948Y-3.5974
X4.426Y-5.1181
X4.826Y-5.1181
X3.3039Y-3.7844
X3.7039Y-3.7844
X6.9768Y-5.5472
X7.1768Y-5.2008
X4.8Y-4.252
X5.2Y-4.252
X5.548Y-2.8494
X5.948Y-2.8494
X2.5559Y-2.2884
X2.9559Y-2.2884
X3.3039Y-3.0364
X3.7039Y-3.0364
X5.548Y-2.1014
X5.948Y-2.1014
X6.2961Y-3.6909
X6.6961Y-3.6909
X5.174Y-5.1181
X5.574Y-5.1181
T4
X5.1575Y-5.1181
X5.5906Y-5.1181
X4.0354Y-3.5974
X4.4685Y-3.5974
X4.0354Y-4.3455
X4.4685Y-4.3455
X5.5315Y-4.3455
X5.9646Y-4.3455
X6.2795Y-2.9528
X6.7126Y-2.9528
X4.0354Y-2.8494
X4.4685Y-2.8494
X6.2795Y-2.1949
X6.7126Y-2.1949
X2.5394Y-4.5325
X2.9724Y-4.5325
X4.0354Y-2.1014
X4.4685Y-2.1014
X5.9916Y-5.1703
X6.4099Y-5.2824
X4.7835Y-3.5039
X5.2165Y-3.5039
X3.2874Y-2.2884
X3.7205Y-2.2884
X6.2795Y-4.439
X6.7126Y-4.439
X2.5394Y-3.7844
X2.9724Y-3.7844
X4.7835Y-2.7559
X5.2165Y-2.7559
X3.2874Y-4.5325
X3.7205Y-4.5325
X2.5394Y-3.0364
X2.9724Y-3.0364
X4.7835Y-2.0079
X5.2165Y-2.0079
X5.5315Y-3.5974
X5.9646Y-3.5974
X4.4094Y-5.1181
X4.8425Y-5.1181
X3.2874Y-3.7844
X3.7205Y-3.7844
X6.9685Y-5.5615
X7.185Y-5.1865
X4.7835Y-4.252
X5.2165Y-4.252
X5.5315Y-2.8494
X5.9646Y-2.8494
X2.5394Y-2.2884
X2.9724Y-2.2884
X3.2874Y-3.0364
X3.7205Y-3.0364
X5.5315Y-2.1014
X5.9646Y-2.1014
X6.2795Y-3.6909
X6.7126Y-3.6909
T5
X5.374Y-5.1181
X4.252Y-3.5974
X4.252Y-4.3455
X5.748Y-4.3455
X6.4961Y-2.9528
X4.252Y-2.8494
X6.4961Y-2.1949
X2.7559Y-4.5325
X4.252Y-2.1014
X6.2008Y-5.2264
X5.Y-3.5039
X3.5039Y-2.2884
X6.4961Y-4.439
X2.7559Y-3.7844
X5.Y-2.7559
X3.5039Y-4.5325
X2.7559Y-3.0364
X5.Y-2.0079
X5.748Y-3.5974
X4.626Y-5.1181
X3.5039Y-3.7844
X7.0768Y-5.374
X5.Y-4.252
X5.748Y-2.8494
X2.7559Y-2.2884
X3.5039Y-3.0364
X5.748Y-2.1014
X6.4961Y-3.6909
T0
M30
